<svg width="17" height="18" viewBox="0 0 17 18" fill="none" xmlns="http://www.w3.org/2000/svg">
<path d="M12.0417 6.62508H4.95836C4.7705 6.62508 4.59033 6.69971 4.45749 6.83255C4.32466 6.96539 4.25003 7.14555 4.25003 7.33341C4.25003 7.52128 4.32466 7.70144 4.45749 7.83428C4.59033 7.96712 4.7705 8.04175 4.95836 8.04175H12.0417C12.2296 8.04175 12.4097 7.96712 12.5426 7.83428C12.6754 7.70144 12.75 7.52128 12.75 7.33341C12.75 7.14555 12.6754 6.96539 12.5426 6.83255C12.4097 6.69971 12.2296 6.62508 12.0417 6.62508ZM9.20836 9.45841H4.95836C4.7705 9.45841 4.59033 9.53304 4.45749 9.66588C4.32466 9.79872 4.25003 9.97889 4.25003 10.1667C4.25003 10.3546 4.32466 10.5348 4.45749 10.6676C4.59033 10.8005 4.7705 10.8751 4.95836 10.8751H9.20836C9.39622 10.8751 9.57639 10.8005 9.70923 10.6676C9.84207 10.5348 9.9167 10.3546 9.9167 10.1667C9.9167 9.97889 9.84207 9.79872 9.70923 9.66588C9.57639 9.53304 9.39622 9.45841 9.20836 9.45841ZM8.50003 1.66675C7.56983 1.66675 6.64874 1.84996 5.78935 2.20593C4.92996 2.56191 4.1491 3.08366 3.49135 3.74141C2.16297 5.06979 1.41669 6.87146 1.41669 8.75008C1.4105 10.3857 1.97684 11.972 3.01753 13.2338L1.60086 14.6505C1.50257 14.7501 1.43599 14.8766 1.40952 15.014C1.38305 15.1514 1.39787 15.2936 1.45211 15.4226C1.51094 15.55 1.60632 15.6571 1.72613 15.7303C1.84594 15.8034 1.98478 15.8393 2.12503 15.8334H8.50003C10.3786 15.8334 12.1803 15.0871 13.5087 13.7588C14.8371 12.4304 15.5834 10.6287 15.5834 8.75008C15.5834 6.87146 14.8371 5.06979 13.5087 3.74141C12.1803 2.41303 10.3786 1.66675 8.50003 1.66675ZM8.50003 14.4167H3.83211L4.49086 13.758C4.62279 13.6253 4.69684 13.4458 4.69684 13.2586C4.69684 13.0715 4.62279 12.892 4.49086 12.7592C3.56336 11.8328 2.98578 10.6134 2.85652 9.30881C2.72726 8.00424 3.05432 6.69521 3.78198 5.60474C4.50964 4.51428 5.59288 3.70984 6.84714 3.32848C8.10141 2.94712 9.4491 3.01244 10.6606 3.51331C11.8721 4.01418 12.8725 4.91961 13.4913 6.07534C14.11 7.23107 14.309 8.56559 14.0542 9.85154C13.7993 11.1375 13.1065 12.2953 12.0938 13.1278C11.081 13.9602 9.81099 14.4157 8.50003 14.4167Z" fill="#0E1D44"/>
</svg>
