<svg width="158" height="39" viewBox="0 0 158 39" fill="none" xmlns="http://www.w3.org/2000/svg">
<path fill-rule="evenodd" clip-rule="evenodd" d="M37.8484 24.1937C38.2235 22.6954 38.4227 21.1274 38.4227 19.5129C38.4227 8.90273 29.8215 0.301514 19.2114 0.301514C8.60122 0.301514 0 8.90273 0 19.5129C0 26.1757 3.39184 32.0463 8.54303 35.4922C8.4127 35.1892 8.29036 34.8779 8.176 34.5584C7.40533 32.405 7.02 30.195 7.02 27.9284C7.02 25.639 7.45067 23.4404 8.312 21.3324C9.17333 19.2244 10.454 17.479 12.154 16.0964H20.212V20.1764H14.228C13.616 20.879 13.0833 22.0124 12.63 23.5764C12.1993 25.1404 11.984 26.6364 11.984 28.0644C11.984 29.4924 12.1993 30.9884 12.63 32.5524C13.0833 34.1164 13.616 35.2497 14.228 35.9524H20.212V38.6986C21.012 38.6576 21.799 38.5676 22.5702 38.4316V22.5224H25.8002L26.6502 24.3584C27.5569 23.1344 28.7016 22.5224 30.0842 22.5224H31.4102V27.0784H27.0922V37.0386C29.4812 35.9627 31.6105 34.4126 33.3604 32.5084V22.5224H37.8484V24.1937ZM37.8484 16.0964H33.3604V20.6864H37.8484V16.0964Z" fill="url(#paint0_linear_3_87535)"/>
<path d="M60.0946 28.764C58.8306 28.764 57.6546 28.548 56.5666 28.116C55.4946 27.668 54.5506 27.044 53.7346 26.244C52.9346 25.444 52.3106 24.516 51.8626 23.46C51.4146 22.388 51.1906 21.236 51.1906 20.004C51.1906 18.772 51.4146 17.628 51.8626 16.572C52.3106 15.5 52.9346 14.572 53.7346 13.788C54.5346 13.004 55.4706 12.396 56.5426 11.964C57.6306 11.516 58.8066 11.292 60.0706 11.292C61.4146 11.292 62.6066 11.508 63.6466 11.94C64.7026 12.372 65.6226 12.964 66.4066 13.716L63.8866 16.26C63.4386 15.78 62.8946 15.404 62.2546 15.132C61.6306 14.86 60.9026 14.724 60.0706 14.724C59.3346 14.724 58.6546 14.852 58.0306 15.108C57.4226 15.348 56.8946 15.7 56.4466 16.164C56.0146 16.628 55.6706 17.188 55.4146 17.844C55.1746 18.5 55.0546 19.22 55.0546 20.004C55.0546 20.804 55.1746 21.532 55.4146 22.188C55.6706 22.844 56.0146 23.404 56.4466 23.868C56.8946 24.332 57.4226 24.692 58.0306 24.948C58.6546 25.204 59.3346 25.332 60.0706 25.332C60.9346 25.332 61.6866 25.196 62.3266 24.924C62.9666 24.652 63.5186 24.276 63.9826 23.796L66.5266 26.34C65.7106 27.092 64.7746 27.684 63.7186 28.116C62.6786 28.548 61.4706 28.764 60.0946 28.764ZM68.1455 28.5V16.836H71.8175V28.5H68.1455ZM71.8175 22.092L70.2815 20.892C70.5855 19.532 71.0975 18.476 71.8175 17.724C72.5375 16.972 73.5375 16.596 74.8175 16.596C75.3775 16.596 75.8655 16.684 76.2815 16.86C76.7135 17.02 77.0895 17.276 77.4095 17.628L75.2255 20.388C75.0655 20.212 74.8655 20.076 74.6255 19.98C74.3855 19.884 74.1135 19.836 73.8095 19.836C73.2015 19.836 72.7135 20.028 72.3455 20.412C71.9935 20.78 71.8175 21.34 71.8175 22.092ZM78.2677 28.5V16.836H81.9397V28.5H78.2677ZM80.1157 15.228C79.5397 15.228 79.0597 15.036 78.6757 14.652C78.3077 14.252 78.1237 13.772 78.1237 13.212C78.1237 12.636 78.3077 12.156 78.6757 11.772C79.0597 11.388 79.5397 11.196 80.1157 11.196C80.6917 11.196 81.1637 11.388 81.5317 11.772C81.8997 12.156 82.0837 12.636 82.0837 13.212C82.0837 13.772 81.8997 14.252 81.5317 14.652C81.1637 15.036 80.6917 15.228 80.1157 15.228ZM84.4055 28.5V16.836H88.0775V28.5H84.4055ZM91.8695 28.5V21.684C91.8695 21.092 91.6855 20.636 91.3175 20.316C90.9655 19.98 90.5255 19.812 89.9975 19.812C89.6295 19.812 89.3015 19.892 89.0135 20.052C88.7255 20.196 88.4935 20.404 88.3175 20.676C88.1575 20.948 88.0775 21.284 88.0775 21.684L86.6615 21.06C86.6615 20.132 86.8615 19.34 87.2615 18.684C87.6615 18.012 88.2055 17.5 88.8935 17.148C89.5815 16.78 90.3575 16.596 91.2215 16.596C92.0375 16.596 92.7655 16.78 93.4055 17.148C94.0615 17.516 94.5815 18.028 94.9655 18.684C95.3495 19.34 95.5415 20.124 95.5415 21.036V28.5H91.8695ZM99.3335 28.5V21.684C99.3335 21.092 99.1495 20.636 98.7815 20.316C98.4295 19.98 97.9895 19.812 97.4615 19.812C97.0935 19.812 96.7655 19.892 96.4775 20.052C96.1895 20.196 95.9575 20.404 95.7815 20.676C95.6215 20.948 95.5415 21.284 95.5415 21.684L93.4295 21.396C93.4615 20.404 93.6935 19.556 94.1255 18.852C94.5735 18.132 95.1575 17.58 95.8775 17.196C96.6135 16.796 97.4375 16.596 98.3495 16.596C99.2455 16.596 100.037 16.788 100.725 17.172C101.429 17.54 101.981 18.076 102.381 18.78C102.797 19.468 103.005 20.3 103.005 21.276V28.5H99.3335ZM110.111 28.74C109.039 28.74 108.079 28.476 107.231 27.948C106.399 27.42 105.735 26.7 105.239 25.788C104.759 24.876 104.519 23.836 104.519 22.668C104.519 21.5 104.759 20.46 105.239 19.548C105.735 18.636 106.399 17.916 107.231 17.388C108.079 16.86 109.039 16.596 110.111 16.596C110.895 16.596 111.599 16.748 112.223 17.052C112.863 17.356 113.383 17.78 113.783 18.324C114.183 18.852 114.407 19.46 114.455 20.148V25.188C114.407 25.876 114.183 26.492 113.783 27.036C113.399 27.564 112.887 27.98 112.247 28.284C111.607 28.588 110.895 28.74 110.111 28.74ZM110.855 25.428C111.639 25.428 112.271 25.172 112.751 24.66C113.231 24.132 113.471 23.468 113.471 22.668C113.471 22.124 113.359 21.644 113.135 21.228C112.927 20.812 112.623 20.492 112.223 20.268C111.839 20.028 111.391 19.908 110.879 19.908C110.367 19.908 109.911 20.028 109.511 20.268C109.127 20.492 108.815 20.812 108.575 21.228C108.351 21.644 108.239 22.124 108.239 22.668C108.239 23.196 108.351 23.668 108.575 24.084C108.799 24.5 109.111 24.828 109.511 25.068C109.911 25.308 110.359 25.428 110.855 25.428ZM113.327 28.5V25.356L113.879 22.524L113.327 19.692V16.836H116.927V28.5H113.327ZM121.048 28.5V12.012H124.72V28.5H121.048ZM118.408 19.956V16.836H127.36V19.956H118.408ZM128.858 28.5V16.836H132.53V28.5H128.858ZM132.53 22.092L130.994 20.892C131.298 19.532 131.81 18.476 132.53 17.724C133.25 16.972 134.25 16.596 135.53 16.596C136.09 16.596 136.578 16.684 136.994 16.86C137.426 17.02 137.802 17.276 138.122 17.628L135.938 20.388C135.778 20.212 135.578 20.076 135.338 19.98C135.098 19.884 134.826 19.836 134.522 19.836C133.914 19.836 133.426 20.028 133.058 20.412C132.706 20.78 132.53 21.34 132.53 22.092ZM138.98 28.5V16.836H142.652V28.5H138.98ZM140.828 15.228C140.252 15.228 139.772 15.036 139.388 14.652C139.02 14.252 138.836 13.772 138.836 13.212C138.836 12.636 139.02 12.156 139.388 11.772C139.772 11.388 140.252 11.196 140.828 11.196C141.404 11.196 141.876 11.388 142.244 11.772C142.612 12.156 142.796 12.636 142.796 13.212C142.796 13.772 142.612 14.252 142.244 14.652C141.876 15.036 141.404 15.228 140.828 15.228ZM152.342 28.5L149.534 23.964L148.742 23.46L144.158 16.836H148.454L151.07 21.084L151.838 21.564L156.59 28.5H152.342ZM143.942 28.5L148.718 21.708L150.806 24.06L147.95 28.5H143.942ZM151.814 23.436L149.726 21.084L152.366 16.836H156.35L151.814 23.436Z" fill="white"/>
<defs>
<linearGradient id="paint0_linear_3_87535" x1="14.5999" y1="6.00012" x2="24.0999" y2="41.0001" gradientUnits="userSpaceOnUse">
<stop stop-color="#2AAC95"/>
<stop offset="0.989583" stop-color="#76D1F7"/>
</linearGradient>
</defs>
</svg>
