<svg width="15" height="15" viewBox="0 0 15 15" fill="none" xmlns="http://www.w3.org/2000/svg">
<path d="M7.50008 0.666626C6.09913 0.666626 4.72964 1.08206 3.5648 1.86038C2.39995 2.63871 1.49206 3.74497 0.955938 5.03928C0.419817 6.33359 0.279544 7.75782 0.552855 9.13185C0.826167 10.5059 1.50079 11.768 2.49141 12.7586C3.48203 13.7493 4.74416 14.4239 6.11819 14.6972C7.49223 14.9705 8.91645 14.8302 10.2108 14.2941C11.5051 13.758 12.6113 12.8501 13.3897 11.6852C14.168 10.5204 14.5834 9.15091 14.5834 7.74996C14.5813 5.87198 13.8344 4.07152 12.5064 2.74359C11.1785 1.41566 9.37806 0.668715 7.50008 0.666626ZM7.50008 13.4166C6.37932 13.4166 5.28373 13.0843 4.35185 12.4616C3.41997 11.839 2.69366 10.9539 2.26477 9.9185C1.83587 8.88305 1.72365 7.74367 1.9423 6.64445C2.16095 5.54522 2.70065 4.53552 3.49315 3.74302C4.28564 2.95052 5.29535 2.41083 6.39457 2.19218C7.4938 1.97353 8.63318 2.08575 9.66862 2.51464C10.7041 2.94354 11.5891 3.66985 12.2117 4.60173C12.8344 5.53361 13.1667 6.6292 13.1667 7.74996C13.165 9.25232 12.5675 10.6927 11.5051 11.755C10.4428 12.8173 9.00245 13.4149 7.50008 13.4166ZM7.50008 7.39579C7.31222 7.39579 7.13206 7.47042 6.99922 7.60326C6.86638 7.7361 6.79175 7.91626 6.79175 8.10413V10.2291C6.79175 10.417 6.86638 10.5972 6.99922 10.73C7.13206 10.8628 7.31222 10.9375 7.50008 10.9375C7.68795 10.9375 7.86811 10.8628 8.00095 10.73C8.13379 10.5972 8.20842 10.417 8.20842 10.2291V8.10413C8.20842 7.91626 8.13379 7.7361 8.00095 7.60326C7.86811 7.47042 7.68795 7.39579 7.50008 7.39579ZM7.50008 4.56246C7.32497 4.56246 7.15378 4.61439 7.00817 4.71168C6.86257 4.80897 6.74908 4.94725 6.68207 5.10904C6.61505 5.27083 6.59752 5.44886 6.63168 5.62061C6.66584 5.79237 6.75017 5.95013 6.874 6.07396C6.99783 6.19779 7.15559 6.28212 7.32735 6.31628C7.4991 6.35044 7.67713 6.33291 7.83892 6.26589C8.00071 6.19888 8.13899 6.08539 8.23628 5.93979C8.33357 5.79418 8.3855 5.62299 8.3855 5.44788C8.3855 5.21305 8.29222 4.98784 8.12617 4.82179C7.96012 4.65574 7.73491 4.56246 7.50008 4.56246Z" fill="#0E1D44"/>
</svg>
