<svg width="21" height="21" viewBox="0 0 21 21" fill="none" xmlns="http://www.w3.org/2000/svg">
<path fill-rule="evenodd" clip-rule="evenodd" d="M11.5943 9.36246C12.3958 10.1807 12.3958 11.5073 11.5943 12.3256C10.7927 13.1438 9.49317 13.1438 8.69162 12.3256C7.89008 11.5073 7.89008 10.1807 8.69162 9.36246C9.49317 8.54422 10.7927 8.54422 11.5943 9.36246ZM4.84658 9.36256C5.64812 10.1808 5.64812 11.5074 4.84658 12.3257C4.04503 13.1439 2.74548 13.1439 1.94393 12.3257C1.14239 11.5074 1.14239 10.1808 1.94393 9.36256C2.74547 8.54432 4.04503 8.54432 4.84658 9.36256ZM18.3358 12.3256C19.1373 11.5073 19.1373 10.1807 18.3358 9.36246C17.5342 8.54422 16.2347 8.54422 15.4331 9.36246C14.6316 10.1807 14.6316 11.5073 15.4331 12.3256C16.2347 13.1438 17.5342 13.1438 18.3358 12.3256Z" fill="#7F8FA4"/>
<mask id="mask0_5_88020" style="mask-type:luminance" maskUnits="userSpaceOnUse" x="1" y="8" width="18" height="5">
<path fill-rule="evenodd" clip-rule="evenodd" d="M11.5943 9.36246C12.3958 10.1807 12.3958 11.5073 11.5943 12.3256C10.7927 13.1438 9.49317 13.1438 8.69162 12.3256C7.89008 11.5073 7.89008 10.1807 8.69162 9.36246C9.49317 8.54422 10.7927 8.54422 11.5943 9.36246ZM4.84658 9.36256C5.64812 10.1808 5.64812 11.5074 4.84658 12.3257C4.04503 13.1439 2.74548 13.1439 1.94393 12.3257C1.14239 11.5074 1.14239 10.1808 1.94393 9.36256C2.74547 8.54432 4.04503 8.54432 4.84658 9.36256ZM18.3358 12.3256C19.1373 11.5073 19.1373 10.1807 18.3358 9.36246C17.5342 8.54422 16.2347 8.54422 15.4331 9.36246C14.6316 10.1807 14.6316 11.5073 15.4331 12.3256C16.2347 13.1438 17.5342 13.1438 18.3358 12.3256Z" fill="white"/>
</mask>
<g mask="url(#mask0_5_88020)">
</g>
</svg>
